<svg width="39" height="39" viewBox="0 0 39 39" fill="none" xmlns="http://www.w3.org/2000/svg">
<rect width="39" height="39" rx="19.5" fill="white"/>
<path fill-rule="evenodd" clip-rule="evenodd" d="M29.6977 12.1352L31.1124 12.3004L30.4765 13.575C30.1663 14.1965 29.8559 14.818 29.5452 15.4395C29.5083 15.5712 29.4436 15.6866 29.3478 15.8368C29.3078 15.8996 29.171 16.0993 29.1646 16.1089C29.1285 16.163 29.1018 16.2057 29.0826 16.2399V18.6285C29.0826 24.7405 23.1676 28.6244 17.5817 28.6244C16.4386 28.6244 15.5702 28.5696 14.5758 28.3526C12.9393 27.9955 11.7214 27.2856 11.1641 26.0449L10.5903 24.7676L11.9847 24.6394C13.2461 24.5234 14.3398 24.2831 15.1797 23.9613C12.8739 23.5905 11.5817 22.5777 11.5817 20.6758V19.6758H12.5817C12.8014 19.6758 12.9996 19.658 13.1767 19.6253C11.4461 18.5906 10.5793 16.9307 10.5793 14.6285C10.5792 14.5303 10.5792 14.5303 10.5786 14.4254C10.5721 13.265 10.6344 12.6449 10.9521 11.8535C11.1557 11.3464 11.45 10.8768 11.846 10.4466L12.6006 9.62695L13.3343 10.4654C15.7521 13.2286 18.1421 14.9049 20.5823 15.1077C20.5927 12.558 22.5197 10.6285 25.0825 10.6285C26.2772 10.6285 27.3609 11.082 28.2126 11.8997C28.6787 11.9955 29.1738 12.074 29.6977 12.1352ZM27.4868 13.789L27.1802 13.7196L26.9685 13.4872C26.4566 12.9255 25.8141 12.6285 25.0825 12.6285C23.6195 12.6285 22.5823 13.6709 22.5823 15.1285C22.5823 15.3667 22.5761 15.5164 22.5464 15.7131C22.428 16.4981 21.9877 17.1285 21.0822 17.1285C18.0842 17.1285 15.3795 15.5224 12.742 12.7792C12.606 13.1926 12.5741 13.6174 12.5785 14.4142C12.5791 14.5208 12.5791 14.5208 12.5793 14.6285C12.5793 16.6765 13.4091 17.7967 15.3736 18.4211L16.0707 18.6427V19.3742C16.0707 20.2611 15.2303 21.0961 14.0008 21.4701C14.5644 21.8977 15.7171 22.1285 17.582 22.1285H18.582V23.1285C18.582 24.5612 16.9357 25.683 14.4489 26.2688C15.2599 26.5173 16.3398 26.6244 17.5817 26.6244C22.1961 26.6244 27.0826 23.4158 27.0826 18.6285V16.1285C27.0826 15.8347 27.1678 15.5797 27.3093 15.3145C27.3646 15.2109 27.4255 15.112 27.5007 14.9993C27.5148 14.9781 27.5673 14.9012 27.609 14.8397L27.6882 14.6812C27.8167 14.4244 27.9451 14.1676 28.0734 13.9107C27.8739 13.8729 27.6784 13.8324 27.4868 13.789Z" fill="#65AAA1"/>
</svg>
