<svg width="39" height="39" viewBox="0 0 39 39" fill="none" xmlns="http://www.w3.org/2000/svg">
<rect width="39" height="39" rx="19.5" fill="white"/>
<path fill-rule="evenodd" clip-rule="evenodd" d="M24 10H16C12.6863 10 10 12.6863 10 16V24C10 27.3137 12.6863 30 16 30H24C27.3137 30 30 27.3137 30 24V16C30 12.6863 27.3137 10 24 10ZM12 16C12 13.7909 13.7909 12 16 12H24C26.2091 12 28 13.7909 28 16V24C28 26.2091 26.2091 28 24 28H16C13.7909 28 12 26.2091 12 24V16ZM20 25C17.2386 25 15 22.7614 15 20C15 17.2386 17.2386 15 20 15C22.7614 15 25 17.2386 25 20C25 22.7614 22.7614 25 20 25ZM20 23C21.6569 23 23 21.6569 23 20C23 18.3431 21.6569 17 20 17C18.3431 17 17 18.3431 17 20C17 21.6569 18.3431 23 20 23ZM26 15C26 15.5523 25.5523 16 25 16C24.4477 16 24 15.5523 24 15C24 14.4477 24.4477 14 25 14C25.5523 14 26 14.4477 26 15Z" fill="#65AAA1"/>
</svg>
