<svg width="39" height="39" viewBox="0 0 39 39" fill="none" xmlns="http://www.w3.org/2000/svg">
<rect width="39" height="39" rx="19.5" fill="white"/>
<path fill-rule="evenodd" clip-rule="evenodd" d="M22.0307 14.627H24.0307V19.627C24.0307 22.0979 24.2202 22.627 25.0307 22.627C26.3351 22.627 27.0307 22.0101 27.0307 19.627C27.0307 14.3376 24.3778 11.627 19.0309 11.627C15.5668 11.6274 12.4966 13.8572 11.4246 17.1512C10.3526 20.4452 11.5224 24.0549 14.3226 26.094C17.1229 28.1332 20.9174 28.1384 23.7233 26.107L24.8962 27.727C21.3888 30.2662 16.6457 30.2597 13.1453 27.7108C9.64498 25.1619 8.18276 20.6498 9.52277 16.5323C10.8628 12.4148 14.7006 9.6275 19.0307 9.62695C25.4921 9.62695 29.0307 13.2426 29.0307 19.627C29.0307 23.1718 27.3896 24.627 25.0307 24.627C23.6869 24.627 22.9178 24.1937 22.4956 23.2318C21.5969 24.0958 20.3758 24.627 19.0307 24.627C16.2693 24.627 14.0307 22.3884 14.0307 19.627C14.0307 16.8655 16.2693 14.627 19.0307 14.627C20.1563 14.627 21.1951 14.9989 22.0307 15.6266V14.627ZM22.0307 19.627C22.0307 21.2838 20.6876 22.627 19.0307 22.627C17.3739 22.627 16.0307 21.2838 16.0307 19.627C16.0307 17.9701 17.3739 16.627 19.0307 16.627C20.6876 16.627 22.0307 17.9701 22.0307 19.627Z" fill="#65AAA1"/>
</svg>
