<svg width="39" height="39" viewBox="0 0 39 39" fill="none" xmlns="http://www.w3.org/2000/svg">
<rect width="39" height="39" rx="19.5" fill="white"/>
<path fill-rule="evenodd" clip-rule="evenodd" d="M12.0625 9.62695H28.0625C29.1671 9.62695 30.0625 10.5224 30.0625 11.627V27.627C30.0625 28.7315 29.1671 29.627 28.0625 29.627H12.0625C10.9579 29.627 10.0625 28.7315 10.0625 27.627V11.627C10.0625 10.5224 10.9579 9.62695 12.0625 9.62695ZM12.0625 11.627V27.627H28.0625V11.627H12.0625ZM21.0625 16.627C20.5448 16.627 19.9978 16.7852 19.5146 17.0791L19.0625 16.627H18.0625V23.627H20.0625V19.627C20.0625 19.0512 20.6565 18.627 21.0625 18.627H22.0625C22.4685 18.627 23.0625 19.0512 23.0625 19.627V23.627H25.0625V19.627C25.0625 17.7741 23.4565 16.627 22.0625 16.627H21.0625ZM16.0625 15.627C16.6148 15.627 17.0625 15.1792 17.0625 14.627C17.0625 14.0747 16.6148 13.627 16.0625 13.627C15.5102 13.627 15.0625 14.0747 15.0625 14.627C15.0625 15.1792 15.5102 15.627 16.0625 15.627ZM15.0625 16.627V23.627H17.0625V16.627H15.0625Z" fill="#65AAA1"/>
</svg>
