<svg width="39" height="39" viewBox="0 0 39 39" fill="none" xmlns="http://www.w3.org/2000/svg">
<rect width="39" height="39" rx="19.5" fill="white"/>
<path fill-rule="evenodd" clip-rule="evenodd" d="M30.0247 26.1282C30.7081 24.9571 31 23.0689 31 19.9972C31 16.9378 30.7108 15.0605 30.0202 13.858C29.3281 12.6094 28.5073 12.213 26.8783 12.1179C25.7662 12.0425 23.0023 12 20.0027 12C16.9966 12 14.2314 12.0425 13.111 12.1185C11.4911 12.2133 10.6701 12.6105 9.97193 13.8626C9.29138 15.0609 9 16.9474 9 20.0084C9 23.052 9.29279 24.948 9.97791 26.1424C10.667 27.3784 11.4749 27.7708 13.1086 27.8855C14.2828 27.9543 17.2044 28 20.0027 28C22.7946 28 25.7149 27.9542 26.8783 27.8863C28.527 27.7708 29.3348 27.3778 30.0247 26.1282ZM26.7524 14.1139C27.7714 14.1735 27.9603 14.2651 28.2833 14.8496C28.7535 15.664 29 17.2577 29 20.0084C29 22.7383 28.7522 24.3408 28.2855 25.141C27.9614 25.7274 27.7738 25.8187 26.7501 25.8904C25.6489 25.9547 22.757 26 20.0027 26C17.2421 26 14.3487 25.9547 13.237 25.8897C12.226 25.8186 12.0357 25.7262 11.7187 25.1578C11.2489 24.3385 11 22.727 11 19.9972C11 17.269 11.2475 15.6664 11.7149 14.8434C12.0367 14.2663 12.2284 14.1735 13.2371 14.1145C14.3051 14.0421 17.0442 14 20.0027 14C22.9547 14 25.6926 14.0421 26.7524 14.1139ZM18 17L23 20L18 23V17Z" fill="#65AAA1"/>
</svg>
