<svg width="39" height="39" viewBox="0 0 39 39" fill="none" xmlns="http://www.w3.org/2000/svg">
<rect width="39" height="39" rx="19.5" fill="white"/>
<path fill-rule="evenodd" clip-rule="evenodd" d="M11.5469 9.62695H27.5469C28.6514 9.62695 29.5469 10.5224 29.5469 11.627V27.627C29.5469 28.7315 28.6514 29.627 27.5469 29.627H11.5469C10.4423 29.627 9.54688 28.7315 9.54688 27.627V11.627C9.54688 10.5224 10.4423 9.62695 11.5469 9.62695ZM11.5469 11.627V27.627H27.5469V11.627H11.5469ZM18.6799 19.6313H20.5469V25.627H22.5469V19.6313H24.5293V17.6313H22.5469V16.627C22.5469 16.0747 22.9946 15.627 23.5469 15.627H24.5469V13.627H23.5469C21.89 13.627 20.5469 14.9701 20.5469 16.627V17.6313H18.6799V19.6313Z" fill="#65AAA1"/>
</svg>
